<svg height="512" viewBox="0 0 512 512" width="512" xmlns="http://www.w3.org/2000/svg"><g id="Fill_out_line" data-name="Fill out line"><path d="m352 24h-32v40h-40l16 32h24v392h32z" fill="#d4e4f0"/><circle cx="192" cy="184" fill="#68737f" r="64"/><circle cx="192" cy="184" fill="#4f5761" r="32"/><path d="m184 304v64h-96l16 24-16 64h-24l-18.16992-121.12a32.00481 32.00481 0 0 1 33.41992-36.7l42.06006 2.34 6.68994.37z" fill="#fdc5ca"/><path d="m88 456v32h-64a23.60688 23.60688 0 0 1 14.85986-21.94l25.14014-10.06z" fill="#529ddf"/><path d="m184 304v64h-56v-67.11z" fill="#68737f"/><path d="m320 312 32 24v-16l24-8v-16l24 16h24v56h-112z" fill="#fdc5ca"/><path d="m376 368a22.1988 22.1988 0 0 1 15.17892-21.05962l8.82108-2.94038v-32a24 24 0 0 1 24-24v80z" fill="#ba8b5d"/><path d="m272 208h-16l16 128h-48v-176h48z" fill="#fdc5ca"/><path d="m272 336h-48v-64h40z" fill="#4384c3"/><path d="m360 160v184a24 24 0 0 1 -24 24h-28l20-160h-16v-48z" fill="#fdc5ca"/><path d="m248 304h96v64h-96z" fill="#529ddf"/><path d="m152 368h336v32h-336z" fill="#e04446"/><path d="m488 400v32h-296v56h-40v-88z" fill="#d4e4f0"/><circle cx="408" cy="184" fill="#68737f" r="64"/><circle cx="408" cy="184" fill="#4f5761" r="32"/><path d="m184 304v64h-77.19995l-4.97-33.12a32.01935 32.01935 0 0 1 19.48-34.36l6.68995.37z" fill="#fc979e"/><path d="m256 304v64h-96l16 24-16 64h-24l-18.16992-121.12a32.00481 32.00481 0 0 1 33.41992-36.7l48.75 2.71z" fill="#fdc5ca"/><path d="m160 456v32h-64a23.60688 23.60688 0 0 1 14.85986-21.94l25.14014-10.06z" fill="#529ddf"/><path d="m256 304v64h-56v-67.11z" fill="#68737f"/><path d="m488 24v464h-32v-392h-24l-16-32h40v-40z" fill="#d4e4f0"/><path d="m360 272v72a24 24 0 0 1 -24 24h-28l12-96z" fill="#529ddf"/><path d="m320 432h32v56h-32z" fill="#c1d7e6"/><path d="m288.84473 99.57764a7.99979 7.99979 0 0 0 7.15527 4.42236h16v32h16v-40a8.00008 8.00008 0 0 0 -8-8h-19.05566l-8-16h27.05566a8.00008 8.00008 0 0 0 8-8v-32h16v80h16v-88a8.00008 8.00008 0 0 0 -8-8h-32a8.00008 8.00008 0 0 0 -8 8v32h-32a7.99928 7.99928 0 0 0 -7.15527 11.57764z"/><path d="m488 16h-32a8.00008 8.00008 0 0 0 -8 8v32h-32a7.99928 7.99928 0 0 0 -7.15527 11.57764l16 32a7.99869 7.99869 0 0 0 7.15527 4.42236h16v256h-16v-72a8.00008 8.00008 0 0 0 -8-8 32.03826 32.03826 0 0 0 -29.19434 18.92249l-14.36816-9.57874a8.00016 8.00016 0 0 0 -12.4375 6.65625v-52.16687a71.99 71.99 0 0 0 67.002 6.93l-6.0039-14.83105a56 56 0 1 1 0-103.86426l6.0039-14.83105a72.0237 72.0237 0 0 0 -91.47441 34.76323h-31.52759a8.00008 8.00008 0 0 0 -8 8v16h-24v-16a8.00008 8.00008 0 0 0 -8-8h-15.49658a72.0025 72.0025 0 1 0 -40.50342 99.88287v41.88245l-64.30371-3.57245a40.05171 40.05171 0 0 0 -17.62695 3.02081l-54.37305-3.02081a39.99954 39.99954 0 0 0 -41.77539 45.87207l17.22851 114.85913-19.26562 7.70581a31.48144 31.48144 0 0 0 -19.88379 29.37012 8.00008 8.00008 0 0 0 8 8h168a8.00008 8.00008 0 0 0 8-8v-48h112v48a8.00008 8.00008 0 0 0 8 8h32a8.00008 8.00008 0 0 0 8-8v-48h88v48a8.00008 8.00008 0 0 0 8 8h32a8.00008 8.00008 0 0 0 8-8v-464a8.00008 8.00008 0 0 0 -8-8zm-304.41016 373.47021-4.49023-13.47021h268.90039v16h-264.01611a7.99055 7.99055 0 0 0 -.39405-2.52979zm24.41016-80.12457 40 2.22223v48.43213h-40zm200 34.65436v-32a16.008 16.008 0 0 1 8-13.85254v61.85254h-29.52563a14.16733 14.16733 0 0 1 7.23461-5.47021l8.82129-2.94043a7.99967 7.99967 0 0 0 5.46973-7.58936zm-29.46973-24.41064a7.99967 7.99967 0 0 0 5.46973-7.58936v-1.05176l8 5.33313v21.95252l-3.35156 1.11718a30.14048 30.14048 0 0 0 -19.55323 20.64893h-5.40039a31.79171 31.79171 0 0 0 4.30518-16v-20.90045zm-58.53027-151.58936h17.81421a71.72009 71.72009 0 0 0 14.18579 61.18512v34.81488h-22.9375l6.876-55.00781a8.00087 8.00087 0 0 0 -7.9385-8.99219h-8zm7.0625 112h24.9375v64a16.01833 16.01833 0 0 1 -16 16h-72v-48h42.9375l-2.876 23.00781 15.877 1.98438zm-23.0625-88v16a8.00008 8.00008 0 0 0 8 8h6.9375l-10 80h-33.875l-10-80h6.9375a8.00008 8.00008 0 0 0 8-8v-16zm-40-16h-16v16h16v8h-8a8.00087 8.00087 0 0 0 -7.93848 8.99219l6.87598 55.00781h-22.9375v-96h32zm-49.37622 16a24 24 0 1 1 0-16h-22.62378v16zm-22.62378 48a56 56 0 1 1 45.9707-88h-13.9707a7.9625 7.9625 0 0 0 -5.42847 2.13556 39.99581 39.99581 0 1 0 -2.57153 61.84244v18.62433a56.059 56.059 0 0 1 -24 5.39767zm40 40h24.9375l2 16h-2.71387l-24.22363-1.34576zm-81.19043 26.16846 41.19043 2.28833v51.54321h-24a8 8 0 0 0 -7.58984 10.52979l7.26367 21.79-13.91992 55.68021h-10.86426l-17.14649-114.30859a24.00064 24.00064 0 0 1 25.06641-27.523zm-91.07617 7.80371a23.88474 23.88474 0 0 1 19.07617-7.80371l37.19605 2.06653a39.80543 39.80543 0 0 0 -6.08472 27.82995l3.59033 23.93506h-25.51123a7.99956 7.99956 0 0 0 -6.65625 12.4375l14.03711 21.05566-13.62695 54.50684h-10.86426l-17.14649-114.30859a23.904 23.904 0 0 1 5.99024-19.71924zm-25.54883 166.02783a15.5936 15.5936 0 0 1 7.6416-6.51465l23.71383-9.48535h14.46v16zm61.81543-13.05066v-9.96594l15.76074-63.043a8 8 0 0 0 -1.10449-6.37793l-7.70801-11.56247h12.96289l11.23828 74.92407-19.26562 7.70581a31.66113 31.66113 0 0 0 -11.88379 8.31946zm10.18457 13.05066a15.5936 15.5936 0 0 1 7.6416-6.51465l23.71383-9.48535h14.46v16zm237.81543 0h-16v-40h16zm-152-56a8.00008 8.00008 0 0 0 -8 8v48h-16v-23.0166l12.24585-48.9834h267.75415v16zm288 56h-16v-384a8.00008 8.00008 0 0 0 -8-8h-19.05566l-8-16h27.05566a8.00008 8.00008 0 0 0 8-8v-32h16z"/><path d="m408 176h32v16h-32z"/><path d="m408 144a40 40 0 1 0 29.998 66.46l-11.996-10.58695a24.00025 24.00025 0 1 1 0-31.74561l11.9961-10.58691a40.02723 40.02723 0 0 0 -29.9981-13.54053z"/></g></svg>