<?xml version="1.0" encoding="iso-8859-1"?>
<!-- Generator: Adobe Illustrator 19.0.0, SVG Export Plug-In . SVG Version: 6.00 Build 0)  -->
<svg version="1.1" id="Capa_1" xmlns="http://www.w3.org/2000/svg" xmlns:xlink="http://www.w3.org/1999/xlink" x="0px" y="0px"
	 viewBox="0 0 511.999 511.999" style="enable-background:new 0 0 511.999 511.999;" xml:space="preserve">
<path style="fill:#E8A864;" d="M229.18,187.731h-58.513v68.267h0.555c1.143,7.014,4.446,13.491,9.446,18.534l24.132,24.132v145.067
	h102.4V298.665l18.773-25.028c3.806-5.146,6.093-11.255,6.596-17.638h0.23v-68.267L229.18,187.731L229.18,187.731z"/>
<rect x="8.533" y="162.128" style="fill:#E5E5E5;" width="34.13" height="51.2"/>
<rect x="8.533" y="187.728" style="fill:#CFCFCF;" width="34.13" height="25.6"/>
<g>
	<path style="fill:#4398D1;" d="M64,119.465L64,119.465c11.785,0,21.333,9.549,21.333,21.333v93.867
		c0,11.784-9.548,21.333-21.333,21.333l0,0c-11.785,0-21.333-9.549-21.333-21.333v-93.867C42.667,129.013,52.215,119.465,64,119.465
		z"/>
	<path style="fill:#4398D1;" d="M110.933,76.798L110.933,76.798c14.14,0,25.6,11.46,25.6,25.6v170.667c0,14.14-11.46,25.6-25.6,25.6
		l0,0c-14.14,0-25.6-11.46-25.6-25.6V102.398C85.333,88.258,96.794,76.798,110.933,76.798z"/>
</g>
<rect x="469.33" y="162.128" style="fill:#E5E5E5;" width="34.13" height="51.2"/>
<g>
	<path style="fill:#4398D1;" d="M448,255.998L448,255.998c-11.785,0-21.333-9.549-21.333-21.333v-93.867
		c0-11.785,9.549-21.333,21.333-21.333l0,0c11.785,0,21.333,9.549,21.333,21.333v93.867
		C469.333,246.449,459.785,255.998,448,255.998z"/>
	<path style="fill:#4398D1;" d="M401.067,298.665L401.067,298.665c-14.14,0-25.6-11.46-25.6-25.6V102.398
		c0-14.14,11.46-25.6,25.6-25.6l0,0c14.14,0,25.6,11.46,25.6,25.6v170.667C426.667,287.204,415.206,298.665,401.067,298.665z"/>
</g>
<polygon style="fill:#E5E5E5;" points="324.267,162.131 187.733,162.131 136.533,162.131 136.533,213.331 170.667,213.331 
	245.103,213.331 375.467,213.331 375.467,162.131 "/>
<polygon style="fill:#CFCFCF;" points="324.267,187.731 187.733,187.731 136.533,187.731 136.533,213.331 170.667,213.331 
	245.103,213.331 375.467,213.331 375.467,187.731 "/>
<g>
	<path style="fill:#F2BB80;" d="M204.8,127.998c-9.429,0-17.067,7.637-17.067,17.067v25.6c0,9.429,7.637,17.067,17.067,17.067
		c9.429,0,17.067-7.637,17.067-17.067v-25.6C221.867,135.635,214.229,127.998,204.8,127.998z"/>
	<path style="fill:#F2BB80;" d="M238.933,127.998c-9.429,0-17.067,7.637-17.067,17.067v25.6c0,9.429,7.637,17.067,17.067,17.067
		c9.429,0,17.067-7.637,17.067-17.067v-25.6C256,135.635,248.363,127.998,238.933,127.998z"/>
	<path style="fill:#F2BB80;" d="M273.067,127.998c-9.429,0-17.067,7.637-17.067,17.067v25.6c0,9.429,7.637,17.067,17.067,17.067
		s17.067-7.637,17.067-17.067v-25.6C290.133,135.635,282.496,127.998,273.067,127.998z"/>
	<path style="fill:#F2BB80;" d="M307.2,127.998c-9.429,0-17.067,7.637-17.067,17.067v25.6c0,9.429,7.637,17.067,17.067,17.067
		s17.067-7.637,17.067-17.067v-25.6C324.267,135.635,316.629,127.998,307.2,127.998z"/>
</g>
<g>
	<path style="fill:#3E8CC7;" d="M64,196.265c-11.785,0-21.333-9.549-21.333-21.333v59.733c0,11.784,9.548,21.333,21.333,21.333
		s21.333-9.549,21.333-21.333v-59.733C85.333,186.716,75.785,196.265,64,196.265z"/>
	<path style="fill:#3E8CC7;" d="M110.933,196.265c-14.14,0-25.6-11.46-25.6-25.6v102.4c0,14.14,11.46,25.6,25.6,25.6
		s25.6-11.46,25.6-25.6v-102.4C136.533,184.804,125.073,196.265,110.933,196.265z"/>
</g>
<rect x="469.33" y="187.728" style="fill:#CFCFCF;" width="34.13" height="25.6"/>
<g>
	<path style="fill:#3E8CC7;" d="M448,196.265c11.785,0,21.333-9.549,21.333-21.333v59.733c0,11.785-9.549,21.333-21.333,21.333
		s-21.333-9.549-21.333-21.333v-59.733C426.667,186.716,436.215,196.265,448,196.265z"/>
	<path style="fill:#3E8CC7;" d="M401.067,196.265c14.14,0,25.6-11.46,25.6-25.6v102.4c0,14.14-11.46,25.6-25.6,25.6
		s-25.6-11.46-25.6-25.6v-102.4C375.467,184.804,386.927,196.265,401.067,196.265z"/>
</g>
<path style="fill:#F2BB80;" d="M256,298.665c0-25.6-13.047-47.019-32.427-53.461l-18.773-6.272v-17.067h25.6
	c6.076-0.017,11.674-3.268,14.703-8.533c2.159-3.618,2.867-7.91,1.988-12.032c-2.082-8.149-9.515-13.781-17.92-13.568h-58.505v62.66
	c0,9.054,3.601,17.741,10.001,24.141l24.132,24.132v145.067h102.4V298.665H256z"/>
<path d="M8.533,221.865h25.6v12.8c0,16.495,13.372,29.867,29.867,29.867c4.437-0.026,8.815-1.05,12.8-2.995v11.529
	c0,18.85,15.283,34.133,34.133,34.133s34.133-15.283,34.133-34.133v-51.2h17.067v28.527c-0.026,11.324,4.471,22.187,12.501,30.165
	l21.632,21.641v141.534h17.067V298.665c0-2.261-0.896-4.437-2.5-6.033l-24.132-24.141c-4.787-4.813-7.484-11.315-7.501-18.099
	v-54.127h49.98c3.234-0.043,6.289,1.442,8.26,4.002c0.06,0.085,0.128,0.171,0.188,0.265c0.367,0.58,0.657,1.212,0.853,1.869
	c0.162,0.529,0.273,1.067,0.324,1.613c0.06,0.538,0.06,1.075,0,1.613c-0.017,0.29-0.06,0.572-0.111,0.853
	c-0.196,0.896-0.521,1.766-0.981,2.56c-1.485,2.645-4.284,4.284-7.313,4.292h-25.6c-4.71,0-8.533,3.823-8.533,8.533v17.067
	c0,3.678,2.347,6.938,5.837,8.098l18.773,6.272c15.241,5.06,26.59,28.126,26.59,45.363h17.067c0-23.475-14.609-53.692-38.221-61.559
	l-12.979-4.326v-2.382H230.4c7.185-0.068,14.003-3.166,18.773-8.533h75.093v31.292c-0.009,5.538-1.809,10.923-5.12,15.36
	l-18.773,25.028c-1.109,1.476-1.707,3.277-1.707,5.12v145.067h17.067V301.506l17.067-22.75c5.521-7.39,8.516-16.367,8.533-25.6
	v-31.292h25.6v51.2c0,18.85,15.283,34.133,34.133,34.133s34.133-15.283,34.133-34.133v-11.529c3.985,1.946,8.363,2.97,12.8,2.995
	c16.495,0,29.867-13.372,29.867-29.867v-12.8h25.6c4.71,0,8.533-3.823,8.533-8.533v-51.2c0-4.71-3.823-8.533-8.533-8.533h-25.6
	v-12.8c0-16.495-13.372-29.867-29.867-29.867c-4.437,0.026-8.815,1.05-12.8,2.995v-11.527c0-18.85-15.283-34.133-34.133-34.133
	s-34.133,15.283-34.133,34.133v51.2H332.8v-8.533c0.06-14.08-11.298-25.54-25.378-25.6c-6.391-0.026-12.57,2.347-17.289,6.656
	c-9.651-8.875-24.482-8.875-34.133,0c-9.651-8.875-24.482-8.875-34.133,0c-10.402-9.489-26.522-8.747-36.011,1.655
	c-4.309,4.719-6.682,10.897-6.656,17.289v8.533h-34.133v-51.2c0-18.85-15.283-34.133-34.133-34.133S76.8,83.548,76.8,102.398v11.529
	c-3.985-1.946-8.363-2.97-12.8-2.995c-16.495,0-29.867,13.372-29.867,29.867v12.8h-25.6c-4.71,0-8.533,3.823-8.533,8.533v51.2
	C0,218.042,3.823,221.865,8.533,221.865z M494.933,170.665v34.133h-17.067v-34.133H494.933z M448,127.998
	c7.066,0,12.8,5.734,12.8,12.8v93.867c0,7.066-5.734,12.8-12.8,12.8c-7.066,0-12.8-5.734-12.8-12.8v-93.867
	C435.2,133.732,440.934,127.998,448,127.998z M384,102.398c0-9.429,7.637-17.067,17.067-17.067c9.429,0,17.067,7.637,17.067,17.067
	v170.667c0,9.429-7.637,17.067-17.067,17.067c-9.429,0-17.067-7.637-17.067-17.067V102.398z M366.933,170.665v34.133H256
	c0-0.085,0-0.154,0-0.239c-0.009-1.698-0.188-3.388-0.529-5.052c-0.051-0.23-0.162-0.444-0.213-0.683
	c-0.154-0.623-0.375-1.203-0.572-1.809c-0.358-1.092-0.794-2.159-1.306-3.191c-0.247-0.512-0.367-1.092-0.649-1.587
	c0.094-0.068,0.188-0.137,0.282-0.213c0.393-0.256,0.734-0.563,1.109-0.853c0.64-0.478,1.314-0.922,1.911-1.459
	c0.495,0.444,1.067,0.794,1.596,1.195c0.529,0.401,1.05,0.853,1.621,1.212c0.802,0.495,1.638,0.947,2.492,1.357
	c0.58,0.282,1.126,0.614,1.707,0.853c0.998,0.384,2.014,0.7,3.055,0.947c0.538,0.145,1.041,0.35,1.596,0.461
	c3.285,0.674,6.665,0.674,9.95,0c0.555-0.111,1.058-0.316,1.596-0.461c1.041-0.247,2.057-0.563,3.055-0.947
	c0.606-0.247,1.152-0.58,1.707-0.853c0.853-0.41,1.69-0.862,2.5-1.357c0.563-0.375,1.075-0.802,1.613-1.212s1.101-0.751,1.596-1.195
	c0.495,0.444,1.067,0.794,1.596,1.195c0.529,0.401,1.05,0.853,1.621,1.212c0.802,0.495,1.638,0.947,2.492,1.357
	c0.58,0.282,1.126,0.614,1.707,0.853c0.998,0.384,2.014,0.7,3.055,0.947c0.538,0.145,1.041,0.35,1.596,0.461
	c13.815,2.807,27.298-6.118,30.106-19.934c0.341-1.69,0.512-3.413,0.512-5.137h34.131V170.665z M307.2,136.531
	c4.71,0,8.533,3.823,8.533,8.533v25.6c0,4.71-3.823,8.533-8.533,8.533s-8.533-3.823-8.533-8.533v-25.6
	C298.667,140.354,302.49,136.531,307.2,136.531z M273.067,136.531c4.71,0,8.533,3.823,8.533,8.533v25.6
	c0,4.71-3.823,8.533-8.533,8.533s-8.533-3.823-8.533-8.533v-25.6C264.533,140.354,268.356,136.531,273.067,136.531z
	 M238.933,136.531c4.71,0,8.533,3.823,8.533,8.533v25.6c0,4.71-3.823,8.533-8.533,8.533s-8.533-3.823-8.533-8.533v-25.6
	C230.4,140.354,234.223,136.531,238.933,136.531z M196.267,145.065c0-4.71,3.823-8.533,8.533-8.533s8.533,3.823,8.533,8.533v25.6
	c0,4.71-3.823,8.533-8.533,8.533s-8.533-3.823-8.533-8.533V145.065z M179.2,170.665c0.009,1.613,0.171,3.226,0.486,4.804
	c0.094,0.503,0.256,0.964,0.375,1.451c0.196,0.759,0.341,1.545,0.597,2.278h-9.993c-4.71,0-8.533,3.823-8.533,8.533v17.067h-17.067
	v-34.133H179.2z M93.867,102.398c0-9.429,7.637-17.067,17.067-17.067S128,92.969,128,102.398v170.667
	c0,9.429-7.637,17.067-17.067,17.067s-17.067-7.637-17.067-17.067L93.867,102.398L93.867,102.398z M51.2,140.798
	c0-7.066,5.734-12.8,12.8-12.8s12.8,5.734,12.8,12.8v93.867c0,7.066-5.734,12.8-12.8,12.8s-12.8-5.734-12.8-12.8V140.798z
	 M17.067,170.665h17.067v34.133H17.067V170.665z"/>
<g>
</g>
<g>
</g>
<g>
</g>
<g>
</g>
<g>
</g>
<g>
</g>
<g>
</g>
<g>
</g>
<g>
</g>
<g>
</g>
<g>
</g>
<g>
</g>
<g>
</g>
<g>
</g>
<g>
</g>
</svg>
